# xmcd
#
# Track frame offsets:
#	150
#	12375
#	24710
#	33958
#	43021
#	55264
#	67519
#	79364
#	92000
#	104226
#	117564
#	129085
#	147037
#	156481
#
# Disc length: 2248 seconds
#
# Revision: 1
# Processed by: cddbd v1.5.2PL0 Copyright (c) Steve Scherf et al.
# Submitted via: audiograbber 1.83.01
#
DISCID=bb08c60e
DTITLE=Country_Gentlemen - Wanted
DYEAR=2003
DGENRE=Country
TTITLE0=Johnny Cash - I walk the line
TTITLE1=Kenny Rogers - Ruben James
TTITLE2=Charlie Rich - Lonely weekends
TTITLE3=Frankie Laine - Rawhide
TTITLE4=Merle Haggard - Okie from Muskogee
TTITLE5=Freddy Fender - Wasted days and wasted nights
TTITLE6=Willie Nelson - I hope so
TTITLE7=Slim Whitman - Tennessee waltz
TTITLE8=Buck Owens -- The house down thw block 
TTITLE9=Don Williams - Where do we go from here
TTITLE10=Eddy Arnold - Bouquet of roses
TTITLE11=Rick Nelson - Garden party
TTITLE12=Hank Locklin - Geisa Girl
TTITLE13=Hank Williams - Honky tonkin' (1948)
EXTD=
EXTT0=
EXTT1=
EXTT2=
EXTT3=
EXTT4=
EXTT5=
EXTT6=
EXTT7=
EXTT8=
EXTT9=
EXTT10=
EXTT11=
EXTT12=
EXTT13=
PLAYORDER=
